<svg viewBox="0 0 38 28" xmlns="http://www.w3.org/2000/svg"><path d="M31.667 15.133c-3.467 0-6.334 2.867-6.334 6.334 0 3.466 2.867 6.333 6.334 6.333 3.466 0 6.333-2.867 6.333-6.333 0-3.467-2.867-6.334-6.333-6.334zm0 9.4a3.058 3.058 0 0 1-3.067-3.066c0-1.734 1.333-3.067 3.067-3.067 1.733 0 3.066 1.333 3.066 3.067 0 1.733-1.4 3.066-3.066 3.066zM29 11.8L24 .867C23.867.533 23.4.2 22.933.2h-4.866v3.267H20.8c.4 0 .867.333 1.067.666l3.266 7.134c.134.333.134.933-.133 1.2L20.533 17.6c-.266.333-.866.533-1.266.533H4.8c-.4 0-.667-.333-.6-.733.267-1 .733-2.267 1.667-3.2 1.533-1.667 4.066-2.533 7.333-2.533.333 0 .533.333.667.666l1.333 3c.133.334.533.667.933.667H18.4c.4 0 .6-.333.4-.667L16 9c-.133-.333-.6-.667-1.067-.667H.667V11.6H3.8c-.133.133-.267.2-.333.333-3.067 3-2.8 7.734-2.8 7.934v.8c.066.4.4.733.8.733H3v.067C3 24.933 5.867 27.8 9.333 27.8c3.467 0 6.334-2.867 6.334-6.333V21.4h5.066c.4 0 .934-.267 1.267-.6l6.867-7.8c.266-.267.4-.8.133-1.2zm-16.6 9.667a3.058 3.058 0 0 1-3.067 3.066 3.058 3.058 0 0 1-3.066-3.066V21.4l6.133.067c0-.067 0 0 0 0z" fill-rule="evenodd"></path></svg>
